:SAMPLES-PER-SECOND 30
:FULLY-SPECIFIED
:DEGREES
693
root  -50.0467 39.6873 -4.61765 -7.37511 1.96088 4.55231
RightUpLeg  -7.24281 -8.14641 -20.0926
RightLeg  27.1734 2.58156 1.19765
RightFoot  -3.85914 -0.511551 7.40436
RightToes  -2.21189e-009 0 -3.6325e-017
Spine  8.22654 -1.75189 -6.95309
Spine1  9.62424 -3.49631 1.55773
HEad  -6.27366 13.9147 -6.83489
LeftShoulder1  -0.0063986 3.52463 -23.8206
LeftArm  -11.3961 11.2513 -23.1875
LeftForeArm  -5.25369 -10.9759 -4.12826
LeftHand  -0.00556507 5.89854 4.60843
RightShoulder  -0.361056 -4.58833 26.2377
RightArm  8.85267 -13.1074 45.4017
RightForeArm  -10.288 9.691 5.96794
RightHand  -0.789793 4.82079 -9.25605
LeftUpLeg  2.42944 7.60889 -5.41389
LeftLeg  15.669 20.217 2.51437
LeftFoot  -10.8406 0.0486483 3.73608
LeftToes  -4.03379e-008 1.61488e-010 -5.81581e-011
694
root  -49.5751 39.7117 -4.47864 -7.4176 6.18695 3.97485
RightUpLeg  -8.85843 -8.39 -17.23
RightLeg  31.2878 -0.514446 -0.566879
RightFoot  -4.07509 -0.407531 5.96853
RightToes  -2.21189e-009 0 -3.6325e-017
Spine  8.76877 -1.83968 -7.61769
Spine1  9.44054 -3.96697 2.86623
HEad  -6.48759 12.9955 -6.46925
LeftShoulder1  0.0520731 3.32745 -23.2815
LeftArm  -12.9108 10.3144 -21.5795
LeftForeArm  -7.00118 -11.6479 -3.54856
LeftHand  0.0450842 6.57561 7.12296
RightShoulder  -0.383711 -4.65169 26.3204
RightArm  7.00791 -10.5046 43.9114
RightForeArm  -12.0585 9.42179 5.37481
RightHand  -0.822511 4.6465 -9.77822
LeftUpLeg  3.03839 7.28908 -5.71534
LeftLeg  14.9582 16.734 1.71924
LeftFoot  -11.0773 0.0555756 4.79536
LeftToes  -4.03379e-008 1.61488e-010 -5.81581e-011
695
root  -49.1352 39.7345 -4.31431 -7.34529 9.93951 3.41119
RightUpLeg  -10.8211 -8.08397 -13.9952
RightLeg  34.0474 -2.5907 -2.11206
RightFoot  -4.45221 -0.327595 4.94951
RightToes  -2.21189e-009 0 -3.6325e-017
Spine  9.1623 -1.6693 -8.27624
Spine1  9.30261 -4.23347 4.54969
HEad  -6.72957 12.1389 -6.40978
LeftShoulder1  -0.00313698 3.50997 -23.5852
LeftArm  -14.3533 8.0613 -20.7513
LeftForeArm  -8.40196 -11.7118 -3.1254
LeftHand  0.087202 6.73809 9.44596
RightShoulder  -0.249844 -4.27901 24.9385
RightArm  4.48972 -8.51975 43.3882
RightForeArm  -12.8098 8.96469 4.54384
RightHand  -0.809247 4.71069 -9.56768
LeftUpLeg  3.58203 7.10802 -5.85804
LeftLeg  14.3627 13.4555 0.980199
LeftFoot  -11.3189 0.0669054 5.61614
LeftToes  -4.03379e-008 1.61488e-010 -5.81581e-011
696
root  -48.6594 39.7266 -4.13102 -7.10342 13.4136 3.29138
RightUpLeg  -13.0693 -7.12296 -11.2016
RightLeg  35.1993 -2.68809 -2.28135
RightFoot  -4.16698 -0.276575 3.95247
RightToes  -2.21189e-009 0 -3.6325e-017
Spine  8.9682 -1.50577 -7.66546
Spine1  9.81787 -3.73257 3.72086
HEad  -7.01792 10.4424 -5.8541
LeftShoulder1  0.135623 3.02918 -22.0413
LeftArm  -17.1354 6.50497 -22.4784
LeftForeArm  -7.36318 -12.6377 -2.19238
LeftHand  0.0033954 5.80321 7.65641
RightShoulder  -0.288882 -4.40163 24.9672
RightArm  2.97636 -6.28988 42.0663
RightForeArm  -13.8659 8.74364 4.02073
RightHand  -0.82595 4.31699 -10.1388
LeftUpLeg  4.14068 6.6568 -6.56239
LeftLeg  13.6854 10.8834 0.431638
LeftFoot  -11.5612 0.0820339 6.36234
LeftToes  -4.03379e-008 1.61488e-010 -5.81581e-011
697
root  -48.2094 39.6954 -3.91092 -7.25989 16.9225 3.24225
RightUpLeg  -14.3932 -5.86839 -8.67713
RightLeg  34.1819 -1.50868 -1.35305
RightFoot  -4.17149 -0.305121 4.41351
RightToes  -2.21189e-009 0 -3.6325e-017
Spine  9.90218 -1.41475 -7.48749
Spine1  9.3931 -3.5098 3.39038
HEad  -7.03134 8.63079 -5.2181
LeftShoulder1  0.149303 2.97879 -22.05
LeftArm  -18.7569 5.05674 -23.257
LeftForeArm  -7.26196 -14.1789 -2.17441
LeftHand  -0.0175059 5.45392 7.79251
RightShoulder  -0.216123 -4.18179 24.3024
RightArm  2.56 -4.9163 40.9291
RightForeArm  -14.4065 9.13942 3.89822
RightHand  -0.826031 3.78246 -10.6853
LeftUpLeg  5.19998 6.44036 -7.1051
LeftLeg  13.232 7.91921 -0.111791
LeftFoot  -11.9327 0.108324 7.09887
LeftToes  -4.03379e-008 1.61488e-010 -5.81581e-011
